<svg width="414" height="284" xmlns="http://www.w3.org/2000/svg" xmlns:xlink="http://www.w3.org/1999/xlink" xml:space="preserve" overflow="hidden"><g><g><g><g><g><g><path d="M113.153 43.5319 113.153 289.517" stroke="#000000" stroke-width="1.53741" stroke-linecap="butt" stroke-linejoin="miter" stroke-miterlimit="8" stroke-opacity="1" fill="none" fill-rule="evenodd" transform="matrix(1 0 0 1.00015 -88.1073 -21.7692)"/><path d="M113.153 289.517 446.788 289.517" stroke="#000000" stroke-width="1.53741" stroke-linecap="butt" stroke-linejoin="miter" stroke-miterlimit="8" stroke-opacity="1" fill="none" fill-rule="evenodd" transform="matrix(1 0 0 1.00015 -88.1073 -21.7692)"/><path d="M113.153 162.35 446.788 162.35" stroke="#4472C4" stroke-width="0.341646" stroke-linecap="butt" stroke-linejoin="miter" stroke-miterlimit="8" stroke-opacity="1" fill="none" fill-rule="evenodd" transform="matrix(1 0 0 1.00015 -88.1073 -21.7692)"/><path d="M292.051 43.5319 292.051 289.517" stroke="#4472C4" stroke-width="0.341646" stroke-linecap="butt" stroke-linejoin="miter" stroke-miterlimit="8" stroke-opacity="1" fill="none" fill-rule="evenodd" transform="matrix(1 0 0 1.00015 -88.1073 -21.7692)"/><text fill="#000000" fill-opacity="1" font-family="Arial,Arial_MSFontService,sans-serif" font-style="normal" font-variant="normal" font-weight="400" font-stretch="normal" font-size="83" text-anchor="start" direction="ltr" writing-mode="lr-tb" unicode-bidi="normal" text-decoration="none" transform="matrix(0.149082 0 0 0.149104 370.329 272)">animal</text><text fill="#000000" fill-opacity="1" font-family="Arial,Arial_MSFontService,sans-serif" font-style="normal" font-variant="normal" font-weight="400" font-stretch="normal" font-size="83" text-anchor="start" direction="ltr" writing-mode="lr-tb" unicode-bidi="normal" text-decoration="none" transform="matrix(0.149082 0 0 0.149104 7.90759 16)">color</text><path d="M134.099 246.059C134.099 243.755 135.734 241.885 137.752 241.885 139.769 241.885 141.404 243.755 141.404 246.059 141.404 248.364 139.769 250.234 137.752 250.234 135.734 250.234 134.099 248.364 134.099 246.059ZM135.925 246.059C135.925 247.356 136.743 248.407 137.752 248.407 138.76 248.407 139.578 247.356 139.578 246.059 139.578 244.762 138.76 243.711 137.752 243.711 136.743 243.711 135.925 244.762 135.925 246.059Z" stroke="#2F528F" stroke-width="0.683291" stroke-linecap="butt" stroke-linejoin="miter" stroke-miterlimit="8" stroke-opacity="1" fill="#4472C4" fill-rule="evenodd" fill-opacity="1" transform="matrix(1 0 0 1.00015 -88.1073 -21.7692)"/><text fill="#000000" fill-opacity="1" font-family="Arial,Arial_MSFontService,sans-serif" font-style="normal" font-variant="normal" font-weight="400" font-stretch="normal" font-size="83" text-anchor="start" direction="ltr" writing-mode="lr-tb" unicode-bidi="normal" text-decoration="none" transform="matrix(0.149082 0 0 0.149104 36.1216 243)">cabbage</text><path d="M134.994 193.583C134.994 191.278 136.629 189.408 138.646 189.408 140.663 189.408 142.299 191.278 142.299 193.583 142.299 195.887 140.663 197.757 138.646 197.757 136.629 197.757 134.994 195.887 134.994 193.583ZM136.82 193.583C136.82 194.88 137.637 195.931 138.646 195.931 139.655 195.931 140.472 194.88 140.472 193.583 140.472 192.286 139.655 191.235 138.646 191.235 137.637 191.235 136.82 192.286 136.82 193.583Z" stroke="#2F528F" stroke-width="0.683291" stroke-linecap="butt" stroke-linejoin="miter" stroke-miterlimit="8" stroke-opacity="1" fill="#4472C4" fill-rule="evenodd" fill-opacity="1" transform="matrix(1 0 0 1.00015 -88.1073 -21.7692)"/><text fill="#000000" fill-opacity="1" font-family="Arial,Arial_MSFontService,sans-serif" font-style="normal" font-variant="normal" font-weight="400" font-stretch="normal" font-size="83" text-anchor="start" direction="ltr" writing-mode="lr-tb" unicode-bidi="normal" text-decoration="none" transform="matrix(0.149082 0 0 0.149104 36.994 190)">cauliflower</text><path d="M132.906 76.2553C132.906 73.9499 134.542 72.081 136.559 72.081 138.576 72.081 140.211 73.9499 140.211 76.2553 140.211 78.5607 138.576 80.4296 136.559 80.4296 134.542 80.4296 132.906 78.5607 132.906 76.2553ZM134.733 76.2553C134.733 77.552 135.55 78.6033 136.559 78.6033 137.567 78.6033 138.385 77.552 138.385 76.2553 138.385 74.9586 137.567 73.9073 136.559 73.9073 135.55 73.9073 134.733 74.9586 134.733 76.2553Z" stroke="#2F528F" stroke-width="0.683291" stroke-linecap="butt" stroke-linejoin="miter" stroke-miterlimit="8" stroke-opacity="1" fill="#4472C4" fill-rule="evenodd" fill-opacity="1" transform="matrix(1 0 0 1.00015 -88.1073 -21.7692)"/><text fill="#000000" fill-opacity="1" font-family="Arial,Arial_MSFontService,sans-serif" font-style="normal" font-variant="normal" font-weight="400" font-stretch="normal" font-size="83" text-anchor="start" direction="ltr" writing-mode="lr-tb" unicode-bidi="normal" text-decoration="none" transform="matrix(0.149082 0 0 0.149104 34.9042 73)">eggplant</text><path d="M391.563 173.68C391.563 171.334 393.199 169.431 395.216 169.431 397.233 169.431 398.868 171.334 398.868 173.68 398.868 176.027 397.233 177.929 395.216 177.929 393.199 177.929 391.563 176.027 391.563 173.68ZM393.389 173.68C393.389 175.017 394.206 176.103 395.216 176.103 396.225 176.103 397.042 175.017 397.042 173.68 397.042 172.343 396.225 171.258 395.216 171.258 394.206 171.258 393.389 172.343 393.389 173.68Z" stroke="#2F528F" stroke-width="0.683291" stroke-linecap="butt" stroke-linejoin="miter" stroke-miterlimit="8" stroke-opacity="1" fill="#4472C4" fill-rule="evenodd" fill-opacity="1" transform="matrix(1 0 0 1.00015 -88.1073 -21.7692)"/><text fill="#000000" fill-opacity="1" font-family="Arial,Arial_MSFontService,sans-serif" font-style="normal" font-variant="normal" font-weight="400" font-stretch="normal" font-size="83" text-anchor="start" direction="ltr" writing-mode="lr-tb" unicode-bidi="normal" text-decoration="none" transform="matrix(0.149082 0 0 0.149104 293.679 170)">dog</text><path d="M384.109 138.571C384.109 136.266 385.745 134.397 387.762 134.397 389.779 134.397 391.414 136.266 391.414 138.571 391.414 140.877 389.779 142.746 387.762 142.746 385.745 142.746 384.109 140.877 384.109 138.571ZM385.935 138.571C385.935 139.868 386.752 140.92 387.762 140.92 388.771 140.92 389.588 139.868 389.588 138.571 389.588 137.275 388.771 136.223 387.762 136.223 386.752 136.223 385.935 137.275 385.935 138.571Z" stroke="#2F528F" stroke-width="0.683291" stroke-linecap="butt" stroke-linejoin="miter" stroke-miterlimit="8" stroke-opacity="1" fill="#4472C4" fill-rule="evenodd" fill-opacity="1" transform="matrix(1 0 0 1.00015 -88.1073 -21.7692)"/><text fill="#000000" fill-opacity="1" font-family="Arial,Arial_MSFontService,sans-serif" font-style="normal" font-variant="normal" font-weight="400" font-stretch="normal" font-size="83" text-anchor="start" direction="ltr" writing-mode="lr-tb" unicode-bidi="normal" text-decoration="none" transform="matrix(0.149082 0 0 0.149104 286.133 135)">rabbit</text><path d="M432.561 113.228C432.561 110.922 434.196 109.053 436.213 109.053 438.23 109.053 439.866 110.922 439.866 113.228 439.866 115.533 438.23 117.402 436.213 117.402 434.196 117.402 432.561 115.533 432.561 113.228ZM434.387 113.228C434.387 114.524 435.204 115.576 436.213 115.576 437.222 115.576 438.039 114.524 438.039 113.228 438.039 111.931 437.222 110.88 436.213 110.88 435.204 110.88 434.387 111.931 434.387 113.228Z" stroke="#2F528F" stroke-width="0.683291" stroke-linecap="butt" stroke-linejoin="miter" stroke-miterlimit="8" stroke-opacity="1" fill="#4472C4" fill-rule="evenodd" fill-opacity="1" transform="matrix(1 0 0 1.00015 -88.1073 -21.7692)"/><text fill="#000000" fill-opacity="1" font-family="Arial,Arial_MSFontService,sans-serif" font-style="normal" font-variant="normal" font-weight="400" font-stretch="normal" font-size="83" text-anchor="start" direction="ltr" writing-mode="lr-tb" unicode-bidi="normal" text-decoration="none" transform="matrix(0.149082 0 0 0.149104 334.633 110)">elephant</text></g></g></g></g></g></g></svg>